<svg width="46" height="52" fill="none" xmlns="http://www.w3.org/2000/svg"><path d="M9.124 50.235l1.005-4.809a1.964 1.964 0 012.296-1.507 1.965 1.965 0 011.507 2.297c0 .144-.072.287-.144.43l-2.153 4.45a1.23 1.23 0 01-1.722.575c-.645-.215-.86-.861-.789-1.436z" fill="#0E6148"/><path d="M8.98 10.401l-2.076 1.945 1.79 1.86c.574.574 1.435.574 2.01 0 .573-.575.573-1.436 0-2.01L8.98 10.4z" fill="#0AAD0A"/><path d="M4.101 15.282l7.821-7.823c.718-.718.574-1.938-.287-2.44C8.838 3.438 5.25 3.87 2.882 6.166.514 8.535.155 12.124 1.733 14.923c.43.933 1.65 1.077 2.368.359zM37.252 10.401l2.152 2.11-1.865 1.694c-.574.575-1.435.575-2.01 0-.573-.574-.573-1.435 0-2.01l1.723-1.794z" fill="#0AAD0A"/><path d="M42.131 15.282L34.31 7.459c-.718-.718-.574-1.938.287-2.44 2.798-1.58 6.386-1.149 8.754 1.148 2.368 2.368 2.727 5.957 1.148 8.756-.43.933-1.65 1.077-2.368.359z" fill="#0AAD0A"/><path d="M22.901 45.929c9.59 0 17.365-7.776 17.365-17.37 0-9.592-7.774-17.368-17.365-17.368-9.59 0-17.364 7.776-17.364 17.369S13.31 45.929 22.9 45.929z" fill="#FBF1E4"/><path d="M22.9 11.119c9.616 0 17.366 7.823 17.366 17.37 0 9.617-7.822 17.368-17.365 17.368-9.615 0-17.365-7.823-17.365-17.369-.071-9.546 7.75-17.369 17.365-17.369zm0-3.947c-11.767 0-21.382 9.617-21.382 21.388 0 11.77 9.615 21.388 21.383 21.388 11.768 0 21.383-9.617 21.383-21.388 0-11.77-9.615-21.388-21.383-21.388z" fill="#0E6148"/><path d="M20.892 4.3l4.018.934v2.584c0 1.076-.86 2.01-2.009 2.01-1.076 0-2.01-.934-2.01-2.01V4.3zM29 2.22c0 1.076-.86 2.009-2.009 2.009h-8.18a2.006 2.006 0 01-2.009-2.01c0-1.076.861-2.01 2.01-2.01h8.18C28.066.21 29 1.144 29 2.22zM22.901 13.129c-.646 0-1.22.502-1.22 1.148 0 .646.502 1.148 1.148 1.148.646 0 1.148-.502 1.148-1.148.072-.646-.43-1.148-1.076-1.148zm-11.265 5.526c-.36 0-.718.144-.933.43a1.232 1.232 0 00.215 1.652c.215.143.43.215.718.215.358 0 .717-.144.932-.43a1.232 1.232 0 00-.215-1.651 1.384 1.384 0 00-.717-.216zM9.123 30.928c-.072 0-.215 0-.287.072-.646.144-1.005.79-.861 1.436.144.502.574.86 1.148.86.072 0 .215 0 .287-.07.646-.144 1.005-.79.861-1.436a1.228 1.228 0 00-1.148-.862zm8.18 9.546c-.43 0-.861.287-1.076.718-.287.574 0 1.292.646 1.507.143.072.287.072.43.072.43 0 .861-.287 1.076-.718.216-.574 0-1.292-.645-1.507-.144-.072-.287-.072-.43-.072zm12.557-.717c-.215 0-.359.071-.574.143a1.098 1.098 0 00-.43 1.579c.215.359.574.574 1.004.574.215 0 .359-.072.574-.143.574-.287.79-1.005.43-1.58a1.237 1.237 0 00-1.004-.573zm7.104-10.336a1.16 1.16 0 00-1.148 1.005c-.072.646.359 1.22 1.004 1.292h.144a1.16 1.16 0 001.148-1.005c.072-.646-.359-1.22-1.005-1.292-.071.072-.071 0-.143 0zm-3.803-11.914c-.287 0-.574.143-.79.359-.43.43-.502 1.148 0 1.65.216.216.503.36.862.36.287 0 .574-.072.789-.36.43-.43.502-1.148 0-1.65-.287-.216-.574-.36-.861-.36z" fill="#0E6148"/><path d="M22.901 11.12c9.615 0 17.365 7.822 17.365 17.368 0 9.618-7.822 17.37-17.365 17.37-9.615 0-17.365-7.824-17.365-17.37-.071-9.546 7.75-17.369 17.365-17.369zm0-1.221c-10.26 0-18.656 8.397-18.656 18.66 0 10.264 8.395 18.662 18.656 18.662s18.656-8.398 18.656-18.661c0-10.264-8.395-18.661-18.656-18.661z" fill="#0E6148"/><path d="M22.901 31.646a3.086 3.086 0 100-6.172 3.086 3.086 0 000 6.172z" fill="#0AAD0A"/><path d="M27.924 23.823l-3.732 5.885c-.574.862-1.65 1.077-2.511.575-.861-.575-1.076-1.651-.574-2.513.143-.143.287-.358.43-.43l5.454-4.307c.287-.215.646-.143.933.072a.652.652 0 010 .718z" fill="#0AAD0A"/><path d="M24.838 4.229v1.005L20.892 4.3v-.072h3.946zM34.597 51.097l-2.153-4.45a1.998 1.998 0 01.861-2.584 1.996 1.996 0 012.584.861c.071.144.143.287.143.43l1.005 4.81c.143.717-.287 1.435-1.005 1.579-.574.215-1.148-.144-1.435-.646z" fill="#0E6148"/></svg>