<svg width="49" height="42" fill="none" xmlns="http://www.w3.org/2000/svg"><path fill-rule="evenodd" clip-rule="evenodd" d="M24.68.564L48.707 14.2H.65L24.68.564zM.72 14.2h48.058L24.75 27.836.719 14.2z" fill="#0E6148"/><path d="M44.44 7.038H5.334v24.38H44.44V7.038z" fill="#FBF1E4"/><path d="M10.152 17.988H39.14M10.152 13.374h9.777M10.152 22.602H39.14" stroke="#B8C5F3" stroke-width="1.719" stroke-linecap="square"/><path opacity=".347" fill-rule="evenodd" clip-rule="evenodd" d="M10.152 28.112c0 .276-.069.482-.275.689-.207.206-.482.275-.826.344v.551h-.345v-.551c-.413 0-.826-.069-1.17-.207v-.688c.138.069.344.137.55.206.207.07.414.07.552.138v-.826l-.207-.07c-.344-.137-.62-.275-.757-.481-.138-.138-.207-.345-.207-.62 0-.276.069-.482.275-.62.207-.138.482-.275.827-.275v-.414h.344v.414c.413 0 .757.068 1.102.275l-.276.62a1.832 1.832 0 00-.826-.207v.827c.344.137.62.275.757.344a.83.83 0 01.345.344c.068-.069.137.07.137.207zm-.826 0c0-.069 0-.138-.069-.207-.069-.069-.138-.137-.275-.137v.688c.206-.069.344-.137.344-.344zm-1.102-1.584c0 .069 0 .138.07.207.068.069.137.137.275.137v-.62c-.207 0-.345.07-.345.276zM42.925 28.112c0 .276-.068.482-.275.689-.206.206-.482.275-.826.344v.551h-.344v-.551c-.414 0-.827-.069-1.17-.207v-.688c.137.069.343.137.55.206.206.07.413.07.55.138v-.826l-.206-.07c-.344-.137-.62-.275-.757-.481-.138-.138-.207-.345-.207-.62 0-.276.07-.482.276-.62.206-.138.482-.275.826-.275v-.414h.344v.414c.413 0 .758.068 1.102.275l-.276.62a1.832 1.832 0 00-.826-.207v.827c.344.137.62.275.758.344a.83.83 0 01.344.344c.137-.069.137.07.137.207zm-.757 0c0-.069 0-.138-.069-.207-.069-.069-.137-.137-.275-.137v.688c.206-.069.344-.137.344-.344zm-1.102-1.584c0 .069 0 .138.07.207.068.069.137.137.275.137v-.62c-.207 0-.345.07-.345.276z" fill="#000"/><path fill-rule="evenodd" clip-rule="evenodd" d="M.646 41.335l24.103-13.593 24.104 13.593H.646z" fill="#0E6148"/><path fill-rule="evenodd" clip-rule="evenodd" d="M.72 41.472V14.2l24.029 13.636L.719 41.472z" fill="#0AAD0A"/><path fill-rule="evenodd" clip-rule="evenodd" d="M48.71 14.2v27.272L24.68 27.836 48.71 14.2z" fill="#0AAD0A"/></svg>