<svg width="56" height="45" fill="none" xmlns="http://www.w3.org/2000/svg"><path d="M51.67.657H4.714v43.328h46.954V.657z" fill="#0AAD0A"/><path d="M34.246 43.985h12.587c.103 0 .172.102.172 0V24.99a.848.848 0 00-.858-.855H34.932a.848.848 0 00-.858.855v18.995c0 .102.069 0 .172 0zM26.906 36.73H11.06a.417.417 0 01-.412-.411v-11.74c0-.24.206-.41.412-.41h15.846c.24 0 .411.205.411.41v11.74c0 .24-.205.41-.411.41zM12.878 14.894c-.138 1.54-1.612 2.67-3.327 2.498-1.715-.17-2.916-1.608-2.744-3.114.514-4.21 1.029-8.385 1.543-12.595 2.264.274 3.396.377 5.625.582-.377 4.21-.72 8.42-1.097 12.629zM25.02 15.544c-.035 1.54-1.441 2.772-3.122 2.704-1.715-.069-3.018-1.369-2.95-2.943.206-4.21.446-8.454.652-12.663 2.264.102 3.361.17 5.625.205l-.206 12.697zM37.161 15.339c.069 1.54-1.235 2.875-2.95 2.943-1.715.069-3.12-1.163-3.12-2.704a1606.34 1606.34 0 01-.24-12.731c2.263-.034 3.36-.068 5.624-.205.24 4.243.446 8.453.686 12.697zM49.268 14.278c.206 1.54-1.029 2.943-2.743 3.114-1.681.172-3.19-.958-3.327-2.498-.378-4.21-.755-8.42-1.098-12.629 2.23-.205 3.361-.308 5.59-.582.515 4.21 1.03 8.385 1.578 12.595z" fill="#FBF1E4"/><path d="M.805 13.422c-.24 1.54.926 2.978 2.606 3.217 1.681.24 3.224-.855 3.396-2.361.514-4.21 1.029-8.385 1.543-12.595-2.229-.274-3.36-.445-5.59-.787-.618 4.176-1.304 8.35-1.955 12.526zM12.878 14.894c-.137 1.54 1.132 2.909 2.847 3.046 1.714.103 3.155-1.061 3.224-2.601.205-4.21.445-8.454.651-12.663-2.263-.103-3.36-.206-5.625-.377-.377 4.176-.72 8.385-1.097 12.595zM25.02 15.544c-.035 1.54 1.337 2.841 3.052 2.841s3.052-1.266 3.052-2.84c-.137-4.245-.205-8.454-.274-12.698-2.264.034-3.361.034-5.625 0l-.206 12.697zM37.16 15.339c.07 1.54 1.544 2.738 3.225 2.601 1.715-.103 2.984-1.506 2.847-3.046-.377-4.21-.755-8.42-1.098-12.629-2.23.205-3.361.274-5.625.377.206 4.243.412 8.453.652 12.697zM49.268 14.278c.206 1.54 1.715 2.601 3.396 2.361 1.68-.24 2.846-1.71 2.606-3.217-.651-4.175-1.337-8.35-1.989-12.526-2.23.342-3.361.513-5.59.787.514 4.21 1.028 8.385 1.577 12.595z" fill="#0E6148"/><path d="M53.213 3.429H3.068c-.788 0-1.44-.65-1.44-1.438v-.547c0-.787.652-1.438 1.44-1.438h50.145c.788 0 1.44.65 1.44 1.438v.547c0 .788-.652 1.438-1.44 1.438zM45.084 36.387c-.206 0-.343-.137-.343-.342v-2.67c0-.205.137-.342.343-.342.206 0 .343.137.343.342v2.67c0 .17-.171.342-.343.342z" fill="#0E6148"/></svg>